<?xml version="1.0" encoding="UTF-8" standalone="no"?>
<!-- Created with Inkscape (http://www.inkscape.org/) -->

<svg
   width="70.529762mm"
   height="86.296974mm"
   viewBox="0 0 70.529762 86.296974"
   version="1.1"
   id="svg5"
   xml:space="preserve"
   inkscape:version="1.2.1 (9c6d41e410, 2022-07-14, custom)"
   sodipodi:docname="pot2.svg"
   xmlns:inkscape="http://www.inkscape.org/namespaces/inkscape"
   xmlns:sodipodi="http://sodipodi.sourceforge.net/DTD/sodipodi-0.dtd"
   xmlns="http://www.w3.org/2000/svg"
   xmlns:svg="http://www.w3.org/2000/svg"><sodipodi:namedview
     id="namedview7"
     pagecolor="#ffffff"
     bordercolor="#000000"
     borderopacity="0.25"
     inkscape:showpageshadow="2"
     inkscape:pageopacity="0.0"
     inkscape:pagecheckerboard="0"
     inkscape:deskcolor="#d1d1d1"
     inkscape:document-units="mm"
     showgrid="false"
     inkscape:zoom="1.9527773"
     inkscape:cx="117.78097"
     inkscape:cy="184.60886"
     inkscape:window-width="1880"
     inkscape:window-height="1043"
     inkscape:window-x="0"
     inkscape:window-y="0"
     inkscape:window-maximized="1"
     inkscape:current-layer="layer1" /><defs
     id="defs2"><clipPath
       clipPathUnits="userSpaceOnUse"
       id="clipPath21330"><rect
         style="fill:#ffe14a;fill-opacity:1;stroke:none;stroke-width:0.063104;stroke-linecap:round;stroke-linejoin:bevel;stroke-dasharray:none;stroke-opacity:1"
         id="rect21332"
         width="5.36485"
         height="3.8473666"
         x="-2.6771457"
         y="0.20813426" /></clipPath><clipPath
       clipPathUnits="userSpaceOnUse"
       id="clipPath21719"><path
         style="fill:#ffe14a;fill-opacity:1;stroke:none;stroke-width:0.0783125;stroke-linecap:round;stroke-linejoin:bevel;stroke-dasharray:none;stroke-opacity:1"
         d="M 1.0756284,0.09076054 C 0.93446005,0.0511318 0.78768473,0.03848586 0.64221865,0.02533406 0.57034971,0.02439475 0.4982954,0.02174215 0.42649539,0.02622641 0.36593566,0.05425295 0.31539443,0.09219852 0.30426879,0.14935724 c -0.0241255,0.042461 -0.0536477,0.0889494 -0.0425446,0.14035068 0.007457,0.0593039 -0.0210315,0.12840894 0.0198805,0.17934193 0.0223227,0.0468246 0.0477737,0.0905898 0.0848406,0.127346 0.0308316,0.0491375 0.0849524,0.0681799 0.13925804,0.072625 0.0471749,0.0234186 0.10372429,-2.763e-5 0.147194,0.0357863 0.0552839,0.0247592 0.11677912,0.0403994 0.17667939,0.0147671 0.0336264,-0.0323112 0.0636289,-0.0675858 0.10130031,-0.0919739 0.0461899,-0.0268117 0.0785934,-0.0668799 0.0915672,-0.11896869 0.022808,-0.0561036 0.032842,-0.11641789 0.031039,-0.17606068 0.015544,-0.0660409 0.04118,-0.12884545 0.032436,-0.19810613 -6.479e-4,-0.0150089 -0.00321,-0.0302777 -0.010291,-0.04370431 z"
         id="path21721" /></clipPath><clipPath
       clipPathUnits="userSpaceOnUse"
       id="clipPath21770"><path
         style="fill:#ffe14a;fill-opacity:1;stroke:none;stroke-width:0.0783125;stroke-linecap:round;stroke-linejoin:bevel;stroke-dasharray:none;stroke-opacity:1"
         d="m 0.68596892,-0.67607249 c 0.0472768,-0.0558129 0.11015764,-0.0976234 0.18361264,-0.10794803 0.15478784,-0.0510964 0.31528984,-0.11050533 0.48094654,-0.0911 0.081815,0.022812 0.1689304,0.0407461 0.2362745,0.0952542 0.082578,0.0332353 0.1342497,0.11481926 0.1297451,0.20375197 0.013271,0.0646731 -0.00495,0.13876089 -0.070415,0.16741083 -0.077023,0.0530953 -0.1689394,0.0724385 -0.2603479,0.0820004 -0.1495988,0.0329081 -0.3028236,0.0109043 -0.45437453,0.0166937 -0.0663933,0.00777 -0.12863659,-0.0138995 -0.18579641,-0.0463392 -0.0597132,-0.0450922 -0.0525722,-0.13520185 -0.0722752,-0.20229838 -0.001071,-0.0389913 -0.006826,-0.0817113 0.0126303,-0.11742549 z"
         id="path21772" /></clipPath><clipPath
       clipPathUnits="userSpaceOnUse"
       id="clipPath25381"><path
         style="fill:#ffe14a;stroke-width:0.123163;stroke-linecap:round;stroke-linejoin:bevel"
         d="M 2.0552635,0.14756672 C 1.1692263,0.25875357 0.27397665,0.15096619 -0.61466506,0.20213789 -0.96191453,0.02826094 -1.3137709,-0.15002916 -1.7444612,-0.12777293 -2.051992,-0.10490146 -2.6039181,-0.37265509 -2.686445,0.09487342 -2.8473272,0.42958278 -2.8953624,0.79982038 -2.7972293,1.160651 c 0.1018261,0.5392965 0.1531394,1.2242655 0.7009977,1.5079376 0.5651603,0.2383002 1.19588379,0.3211406 1.80148382,0.2121831 0.85627289,10e-4 1.71436828,0.015592 2.56953818,-0.00695 C 2.7855049,2.7184835 2.6079914,2.0765977 2.6389119,1.6764742 2.6107074,1.1338317 2.584881,0.45502906 2.0552635,0.14756759 Z"
         id="path25383" /></clipPath></defs><g
     inkscape:label="Calque 1"
     inkscape:groupmode="layer"
     id="layer1"
     transform="translate(-71.497835,-127.99879)"><path
       style="fill:#b66732;fill-opacity:1;stroke:none;stroke-width:1.165;stroke-linecap:round;stroke-linejoin:bevel;stroke-dasharray:none;stroke-opacity:1"
       d="m 126.9062,181.94412 c -0.72323,-1.37428 -2.36712,-2.00034 -3.72686,-2.54301 -1.74233,-0.20612 -3.40783,-0.70956 -5.0959,-1.15626 -2.11278,-0.32294 -4.22699,-0.67278 -6.35862,-0.84633 -2.12999,-0.0145 -4.28527,-0.14202 -6.36532,0.42102 -1.7521,0.42639 -3.44209,1.07803 -5.24719,1.27685 -1.487909,0.39376 -2.98059,0.84501 -4.441466,1.3079 -0.594282,1.16592 0.346573,2.5897 0.257845,3.86743 0.55317,2.99525 -0.0045,6.05465 0.524151,9.05317 0.251413,2.35252 0.747658,4.70535 0.895456,7.05115 -0.39058,-1.50242 0.34283,1.04724 0.242089,1.56249 -0.203818,1.67204 1.689242,2.09882 2.765275,2.39297 3.78433,0.45946 7.16751,0.6431 10.33049,0.6106 8.19822,-0.0843 13.55287,-1.63018 13.86244,-2.66033 0.45593,-1.4787 0.46868,-3.01959 0.71851,-4.53116 0.05,-2.40361 -0.092,-4.81758 0.14301,-7.20929 0.19386,-1.6075 0.11453,-3.22605 0.25246,-4.83257 0.39362,-1.20849 -0.009,-2.26317 0.96428,-3.20856 0.0961,-0.003 0.18393,-0.55159 0.27935,-0.55559 z"
       id="path8400"
       sodipodi:nodetypes="ccccccccccccsccccccc" /><path
       style="fill:none;fill-opacity:1;stroke:#8c4f26;stroke-width:1.165;stroke-linecap:round;stroke-linejoin:bevel;stroke-dasharray:none;stroke-opacity:1"
       d="m 96.58211,179.79669 c 2.494095,-0.74989 5.00241,-1.14264 7.4962,-1.27658 5.53492,0.0197 11.07575,-0.0324 16.60868,0.0339 1.37409,0.19071 2.52967,1.02838 3.82821,1.45009"
       id="path8335"
       sodipodi:nodetypes="cccc" /><g
       id="g5685"
       transform="translate(17.562467,2.4662106)"><path
         style="fill:#73c12d;fill-opacity:1;stroke:#000000;stroke-width:0.665;stroke-dasharray:none;stroke-opacity:1"
         d="m 98.722184,181.72762 c 1.918776,-4.6244 5.450966,-8.45497 9.243716,-11.64834 4.57327,-3.40305 10.1292,-5.49079 15.82744,-5.79292 1.65635,-0.70854 -3.00891,-0.34747 -3.79927,-0.45247 -3.77583,0.15565 -8.13551,-0.77637 -11.20415,2.03149 -3.08473,2.3201 -5.78815,5.12233 -7.65399,8.5289 -0.90282,1.4997 -1.558093,3.128 -2.300749,4.70846"
         id="path925" /><path
         style="fill:#a1db15;fill-opacity:1;stroke:none;stroke-width:0.665001;stroke-dasharray:none;stroke-opacity:1"
         d="m 106.62394,168.69342 c 1.25823,-1.17449 1.88741,-1.52328 3.36039,-2.36299 1.46685,-0.90165 3.0629,-1.29816 4.73446,-1.40301 2.11187,-0.22212 4.50044,-0.19758 6.36083,-0.4814 1.59799,-0.0902 3.30724,-0.44114 0.56882,-0.3841 -2.83354,0.0411 -5.96974,-0.0869 -8.59802,0.0741 -1.18237,0.16701 -2.52139,0.76671 -3.40838,1.20932 -1.23754,0.69093 -2.45297,1.72018 -3.23338,2.69005 -0.44299,0.62096 -2.36732,2.43671 -2.93687,3.47541"
         id="path3427"
         sodipodi:nodetypes="ccccccccc" /></g><g
       id="g5693"
       transform="translate(17.1377,2.6492159)"><path
         style="fill:#73c12d;fill-opacity:1;stroke:#000000;stroke-width:0.665;stroke-dasharray:none;stroke-opacity:1"
         d="m 95.714761,176.52264 c 1.436866,-3.22677 1.3995,-6.9234 3.05042,-10.05219 0.192311,-3.03564 1.340189,-5.92646 1.222828,-8.97377 -0.0792,-4.31713 -1.187003,-9.97384 -1.58131,-12.7552 -0.597904,-4.21748 -2.220769,-10.13656 -5.315322,-14.37509 -0.839946,-0.92719 -2.459599,-5.46384 -2.864612,-4.57132 1.509513,2.9176 0.480213,6.31345 1.496432,9.33424 0.5321,3.11649 1.413983,6.16434 1.274891,9.35614 -0.1266,3.56902 0.117573,7.12702 0.04908,10.6978 0.442778,4.26812 0.06561,8.60644 0.195781,12.90502 -0.307003,3.34179 -0.932119,6.69607 -1.390496,10.02697 -0.0149,0.74861 0.04364,1.49608 0.04429,2.24454"
         id="path931"
         sodipodi:nodetypes="cccscccccccc" /><path
         style="fill:#a1db15;fill-opacity:1;stroke:none;stroke-width:0.665001;stroke-dasharray:none;stroke-opacity:1"
         d="m 98.566311,166.50529 c 0.144013,-1.08127 0.237899,-0.62793 0.264266,-1.99069 0.03945,-2.0387 1.086099,-2.76068 0.89616,-5.04423 0.137961,-3.00003 -0.110848,-5.45774 -0.737456,-8.28792 -0.213029,-2.97241 -0.449007,-3.75229 -0.918642,-6.47228 -0.357981,-2.07332 -1.168339,-5.6472 -1.749495,-7.29542 -0.482521,-1.36848 -2.000838,-4.99841 -2.328808,-5.65073 -0.517542,-0.59701 -2.526662,-4.55477 -2.915255,-4.20871 0.852087,2.06537 2.466768,4.15027 2.68153,6.33708 0.263774,2.5038 1.399481,4.86802 1.559416,7.40249 0.577843,3.23298 0.885206,6.64284 1.596992,9.85549 0.768315,2.18777 0.976577,4.42053 0.980456,6.72248 -0.01361,2.6427 -0.05662,5.02328 -0.07756,7.66106 -0.193379,0.83582 -0.366654,2.01845 -0.29931,2.88782"
         id="path3433"
         sodipodi:nodetypes="csccsscccccccc" /></g><g
       id="g5681"
       transform="translate(15.639114,1.7559102)"><path
         id="path923"
         style="fill:#73c12d;fill-opacity:1;stroke:#000000;stroke-width:0.665;stroke-linecap:round;stroke-linejoin:bevel;stroke-dasharray:none;stroke-opacity:1"
         d="m 100.86257,183.55552 c 0.0776,-0.12148 1.23718,-1.31034 1.31975,-1.42714 1.94716,-2.75439 5.24005,-4.23722 8.14001,-5.81877 3.18895,-1.39636 6.21076,-3.14495 9.24456,-4.82721 0,0 1.39508,-0.55746 0.51776,-0.45994 -3.10875,0.65936 -6.47579,0.32435 -9.38153,1.67934 -4.30153,2.37522 -9.26529,4.50649 -11.528462,9.17036 -0.0465,0.0958 -0.601009,1.55173 -0.6452,1.64972"
         sodipodi:nodetypes="csccccsc" /><path
         style="fill:#a1db15;fill-opacity:1;stroke:none;stroke-width:0.665001;stroke-dasharray:none;stroke-opacity:1"
         d="m 100.26669,181.9299 c 0.84426,-1.66047 2.36846,-2.3946 3.62076,-3.68627 1.41089,-1.5009 3.16161,-2.65129 4.88988,-3.6676 2.00602,-0.83624 4.14806,-1.50582 6.30843,-2.13804 1.65025,-0.11638 3.86847,-0.70433 4.93502,-1.31478 -2.06959,0.13259 -4.03918,0.69756 -6.19601,1.00543 -1.95115,0.15703 -3.92484,1.11236 -6.00529,2.25177 -1.42627,0.87517 -2.6383,1.38081 -4.27552,2.44698 -2.02622,1.69033 -2.99129,2.93728 -4.227458,5.09084 v 0.0958 l -0.133419,0.1336"
         id="path3425"
         sodipodi:nodetypes="ccccccccccc" /></g><g
       id="g5689"
       transform="translate(16.36526,2.281334)"><path
         style="fill:#73c12d;fill-opacity:1;stroke:#000000;stroke-width:0.665;stroke-dasharray:none;stroke-opacity:1"
         d="m 97.809404,183.30848 c 0.0532,-0.12053 0.8672,-2.39089 0.921443,-2.51092 1.826043,-4.04056 4.242383,-7.79425 7.183903,-11.1001 3.30698,-4.06384 6.90921,-7.90059 10.333,-11.84822 1.6082,-2.34695 4.78126,-4.03 6.47262,-5.36634 0.33663,-0.32568 -0.50926,-0.21646 -0.58026,-0.21203 -3.94972,0.24645 -6.80763,3.07349 -10.26737,4.68493 -4.27744,2.27568 -8.16886,5.27452 -11.4527,8.81532 -2.590941,3.13748 -3.759874,7.04546 -4.886357,10.87556 -0.585189,1.4187 -1.055382,2.87952 -1.442444,4.36535 -0.01198,0.046 -0.435826,2.18701 -0.447646,2.23304"
         id="path927"
         sodipodi:nodetypes="cscccscccsc" /><path
         style="fill:#a1db15;fill-opacity:1;stroke:none;stroke-width:0.665001;stroke-dasharray:none;stroke-opacity:1"
         d="m 95.075178,181.00907 c 0.861187,-1.65999 0.856106,-3.29679 1.609628,-5.05619 0.456606,-1.73872 1.131034,-3.45523 1.737431,-4.92654 0.730509,-1.39802 1.138573,-2.98757 2.303273,-4.03806 1.51868,-2.29675 3.85608,-3.72471 5.96427,-5.43722 1.43357,-1.09929 2.97459,-1.54366 4.57132,-3.25594 2.11199,-1.26447 3.49436,-2.05647 5.97461,-3.24838 1.0694,-0.66714 3.53917,-1.81125 4.71162,-2.43969 -2.3968,0.27722 -4.34807,1.27353 -6.68038,2.61835 -2.92159,1.68459 -5.18338,2.73277 -7.65239,4.61894 -0.30872,0.23584 -3.33128,2.21033 -4.42825,3.37125 -1.21825,1.62463 -2.52293,2.06381 -3.434977,3.60689 -1.172384,1.58402 -1.548287,3.48372 -2.562255,5.21751 -1.074838,2.27431 -1.838572,4.01051 -1.988162,6.47517 -0.06177,0.80046 -0.467105,1.29999 -0.70975,1.91839"
         id="path3429"
         sodipodi:nodetypes="ccccccccssccccc" /></g><g
       id="gbreve-9"
       transform="matrix(12.178959,0,0,12.178959,109.12209,178.93516)"
       style="fill:#ffe14a;fill-opacity:1;stroke:#e7c100;stroke-width:0.0812498;stroke-linecap:round;stroke-linejoin:bevel;stroke-dasharray:none;stroke-opacity:1"><path
         id="g-2"
         d="M 0.7071,0.7071 A 1,1 0 1 1 0.866,-0.5 L 1.7321,-1 A 2,2 0 1 0 1.4142,1.4142 L 1.7678,1.7678 V 0.3536 H 0.3536 Z"
         fill="#000000"
         style="fill:#ffe14a;fill-opacity:1;stroke:#e7c100;stroke-width:0.0812498;stroke-linecap:round;stroke-linejoin:bevel;stroke-dasharray:none;stroke-opacity:1" /><path
         id="breve-2"
         d="m 1,0 h 1 a 2,2 0 0 0 -2.5176,-1.9319 l 0.2588,0.966 A 1,1 0 0 1 1,0 Z"
         transform="matrix(-0.39667667,0.30438071,-0.30438071,-0.39667667,0,-3.14159)"
         fill="#000000"
         style="fill:#ffe14a;fill-opacity:1;stroke:#e7c100;stroke-width:0.1625;stroke-linecap:round;stroke-linejoin:bevel;stroke-dasharray:none;stroke-opacity:1" /><circle
         cx="0"
         cy="2.5"
         r="0.3536"
         fill="#000000"
         id="circle10552-8"
         style="fill:#ffe14a;fill-opacity:1;stroke:#e7c100;stroke-width:0.0812498;stroke-linecap:round;stroke-linejoin:bevel;stroke-dasharray:none;stroke-opacity:1" /></g><path
       style="fill:#73c12d;fill-opacity:1;stroke:#000000;stroke-width:0.665;stroke-dasharray:none;stroke-opacity:1"
       d="m 107.81627,185.23022 c -0.006,-0.006 -1.46749,-4.27264 -1.69505,-4.43391 -1.37462,-0.97414 -6.155285,-4.31957 -6.608048,-4.57014 -1.463379,-0.80987 -4.12554,-2.22235 -4.250071,-2.32752 -2.04312,-1.72552 -5.151004,-1.47339 -7.195482,-3.29952 -1.368155,-0.66648 -5.22616,-2.82502 -5.344866,-2.6183 2.276343,1.76926 4.879493,3.19195 6.789868,5.39947 3.381088,2.31895 6.897886,4.52342 10.729539,6.03111 1.29519,0.9137 2.54613,1.9015 3.65907,3.03203 0.16581,0.16843 1.06105,3.13254 1.22042,3.30753"
       id="path943"
       sodipodi:nodetypes="csssccccsc" /><path
       style="fill:#73c12d;fill-opacity:1;stroke:#000000;stroke-width:0.665;stroke-dasharray:none;stroke-opacity:1"
       d="m 104.43272,179.356 c -0.22498,-0.22362 -6.521855,-5.23678 -6.747378,-5.46141 -3.455714,-3.44193 -7.002302,-6.95215 -11.475025,-9.01164 -1.17149,-0.60384 1.934253,2.16546 2.73451,2.72785 3.685829,2.89929 6.964242,6.32145 9.734745,10.09523 1.416898,1.56628 2.973598,3.02584 4.734458,4.20042"
       id="path941"
       sodipodi:nodetypes="cscccc" /><g
       id="g5701"
       transform="translate(19.65842,4.7036281)"><path
         style="fill:#73c12d;fill-opacity:1;stroke:#000000;stroke-width:0.665;stroke-dasharray:none;stroke-opacity:1"
         d="m 89.237112,169.28621 c -0.0942,-0.1719 -2.907116,-5.00267 -3.005775,-5.17162 -1.821391,-3.11891 -4.373491,-5.75335 -6.560458,-8.61459 -1.833446,-2.19262 -3.281142,-4.41569 -5.190737,-6.50327 -2.655237,-2.97718 0.238281,2.48756 1.037776,3.52921 1.757282,3.19303 2.773573,6.7296 4.250347,10.05897 1.24578,2.65007 1.306284,5.99543 3.570592,8.07012 1.631308,1.7265 2.561133,4.29176 4.341263,5.75414"
         id="path935"
         sodipodi:nodetypes="cscccccc" /><path
         style="fill:#a1db15;fill-opacity:1;stroke:none;stroke-width:0.665001;stroke-dasharray:none;stroke-opacity:1"
         d="m 89.053002,169.22435 c -0.0765,-0.10416 -2.777683,-5.0215 -2.852293,-5.12198 -2.002661,-2.69691 -3.348007,-4.1108 -5.213122,-6.72964 -1.9726,-1.79049 -2.907222,-3.49378 -4.263639,-5.67525 -0.910336,-1.19586 -4.175756,-4.70701 -2.252804,-1.72987 1.848072,2.80627 3.455228,5.46214 5.849566,7.79568 1.242894,1.5258 2.577763,3.72703 4.010129,5.49736 1.139077,0.86535 3.413477,5.89056 4.40249,6.73796"
         id="path3437"
         sodipodi:nodetypes="cscccccc" /></g><g
       id="g5697"
       transform="translate(18.923592,3.36739)"><path
         style="fill:#73c12d;fill-opacity:1;stroke:#000000;stroke-width:0.665;stroke-dasharray:none;stroke-opacity:1"
         d="m 93.570771,182.14953 c 0.02658,-0.11689 0.265219,-2.25913 0.225709,-2.60669 -0.242632,-2.13439 -0.990502,-9.3276 -1.228194,-11.43031 -0.03795,-0.33576 -0.0629,-0.54172 -0.0707,-0.57657 -0.734121,-3.27811 -1.309352,-6.59303 -2.551041,-9.73558 -1.202177,-3.00623 -0.673762,-6.42666 -2.403669,-9.26071 -2.020879,-3.44196 -5.461877,-5.73935 -7.844166,-8.91682 -1.798389,-2.49079 -3.85454,-4.71957 -5.876598,-7.04005 -0.777525,-0.96126 -2.483767,-2.64066 -1.299742,-0.35023 1.562655,2.3677 2.440945,5.06926 4.002242,7.42919 2.035802,3.05538 2.8427,6.71547 4.687,9.85804 1.698468,3.95734 2.222065,8.26227 3.86306,12.24278 1.252165,4.29872 2.618242,8.59403 3.568552,12.96025 0.134058,1.34199 0.234515,2.70673 0.445072,4.03485 0.03355,0.21162 0.238864,3.40021 0.278585,3.60973"
         id="path933"
         sodipodi:nodetypes="cssscccccccccsc" /><path
         style="fill:#a1db15;fill-opacity:1;stroke:none;stroke-width:0.665001;stroke-dasharray:none;stroke-opacity:1"
         d="m 92.046233,166.39438 c -0.398092,-2.82917 -0.794136,-3.50033 -1.222965,-4.81742 -0.621041,-1.92459 -1.227913,-3.8988 -1.820134,-6.34333 -0.569885,-2.39737 -0.394971,-3.36319 -1.352187,-6.04811 -1.236625,-2.28691 -3.239332,-4.05314 -5.183696,-6.09974 -1.928409,-1.72749 -3.371833,-4.35222 -5.078726,-6.21306 -1.365229,-1.27264 -4.5971,-5.4112 -4.876904,-5.10441 1.47871,1.7908 2.809556,2.86317 3.756734,5.03693 1.169486,1.65458 3.130009,3.63101 4.84184,5.98916 1.340786,1.694 2.280528,2.48987 3.17897,4.16295 1.268845,1.9847 2.102289,3.96709 2.676142,6.27888 0.655618,2.49844 1.20887,5.33177 2.49678,7.58416 0.69185,2.52827 1.575979,4.69739 2.531439,7.08172 0.114748,0.41343 0.135478,1.36434 0.401006,1.16949"
         id="path3435"
         sodipodi:nodetypes="cccccccccccccc" /></g><g
       id="g5705"
       transform="translate(18.247312,3.0900447)"><path
         style="fill:#73c12d;fill-opacity:1;stroke:#000000;stroke-width:0.665;stroke-dasharray:none;stroke-opacity:1"
         d="m 89.725141,182.9445 c 0.138368,-0.79645 -0.822846,-5.96287 -1.204662,-6.61698 -1.445338,-2.4761 -2.617897,-5.39567 -4.718595,-7.50646 -2.345661,-2.59146 -3.586753,-5.98357 -5.802913,-8.68676 -1.206105,-2.83172 -3.253123,-5.46041 -5.591257,-7.47121 -3.293217,-3.17816 -6.073666,-5.85363 -9.868212,-9.02686 -2.94755,-2.03203 -5.182522,-5.07941 -8.692974,-6.24826 0.726202,1.70022 3.456466,4.47708 4.771493,6.71444 1.70288,2.40537 4.442098,3.9969 5.625579,6.80271 2.072558,3.3396 5.438576,5.62801 7.771302,8.70852 2.35184,3.91968 4.962097,7.67368 7.506991,11.469 1.736569,2.73101 4.656683,4.41251 6.435932,7.09232 0.490671,0.46858 0.791745,4.23382 1.044984,4.87727"
         id="path939"
         sodipodi:nodetypes="csccccccccccc" /><path
         style="fill:#a1db15;fill-opacity:1;stroke:none;stroke-width:0.665001;stroke-dasharray:none;stroke-opacity:1"
         d="m 77.888248,160.36689 c -0.778317,-2.14601 -2.508123,-4.12104 -4.274892,-6.36521 -2.655833,-1.90171 -4.4736,-4.28221 -6.868427,-6.26354 -1.180619,-1.39251 -1.982868,-1.88355 -2.956416,-2.99189 -2.323447,-2.16382 -5.535951,-4.0659 -7.974657,-6.14938 -1.713007,-1.02855 -1.292753,-0.57469 -0.661837,0.15291 1.966174,2.211 3.611932,4.20446 5.954436,6.22615 2.216466,1.99005 4.247239,2.92473 6.340156,5.09514 2.028049,2.21881 3.100434,4.85057 4.6526,7.30861 1.708822,2.00861 3.213757,4.1727 5.084408,6.09189 2.022723,1.51547 3.794152,2.89901 5.636787,4.70974 l 0.200365,0.15961"
         id="path3439"
         sodipodi:nodetypes="cccccccccccc" /></g><path
       style="fill:#b66732;fill-opacity:1;stroke:none;stroke-width:1.165;stroke-linecap:round;stroke-linejoin:bevel;stroke-dasharray:none;stroke-opacity:1"
       d="m 103.28286,183.654 c -0.0747,0.64528 0.21591,1.2679 0.16629,1.89274 0.0395,0.76334 0.84681,1.0504 1.44474,1.28989 0.62959,0.39387 1.35102,0.39737 2.04119,0.57631 0.45974,0.0872 1.09157,0.18414 1.46098,0.17717 0.8504,0.0566 1.67256,0.30845 2.51669,0.41263 0.66614,0.21417 1.35495,0.27513 2.0389,0.38029 0.67644,-0.0263 1.35342,-0.094 2.00802,-0.26836 0.57913,-0.2344 1.23562,-0.28591 1.69347,-0.75992 0.39618,-0.34494 0.94224,-0.59439 1.16321,-1.09733 0.31174,-0.55123 0.25805,-1.21916 0.51508,-1.79116 -0.13299,-0.70916 -1.10079,-0.27798 -1.60053,-0.39878 -0.66546,0.0406 -1.32073,0.11942 -1.97823,0.21503 -0.82751,0.20172 -1.68352,0.0586 -2.52535,0.093 -0.95253,0.007 -1.90791,-0.0128 -2.85758,0.0287 -0.60758,-0.0979 -1.21843,-0.14887 -1.8345,-0.12277 -0.57179,-0.0139 -1.14998,0.0296 -1.71763,-0.006 -0.52842,-0.11686 -1.04973,-0.25512 -1.56043,-0.42262 -0.30514,-0.0901 -0.66844,-0.45086 -0.97432,-0.19929 z"
       id="path9022" /><path
       style="fill:#a25c2d;fill-opacity:1;stroke:none;stroke-width:1.165;stroke-linecap:round;stroke-linejoin:bevel;stroke-dasharray:none;stroke-opacity:1"
       d="m 96.443224,185.25345 c 0.480895,1.61206 0.16813,3.32117 0.257328,4.97819 -0.01692,1.19045 -0.01775,2.3732 0.141169,3.54991 0.04688,1.49746 -0.172068,3.02796 0.180214,4.48848 0.104035,1.47228 -0.114658,2.98311 0.108955,4.43459 0.756055,1.27489 2.445653,1.19478 3.73986,1.41631 3.15385,0.28707 6.29958,1.22638 9.47968,0.74065 0.96519,-0.28478 3.0489,0.17564 3.08487,-1.11116 -1.3263,-0.35429 -2.73026,-0.37205 -4.09341,-0.4673 -1.7158,-0.24706 -3.49125,-0.0608 -5.17741,-0.54552 -1.49546,-0.29106 -3.79495,-0.0889 -4.53981,-1.65792 -0.722306,-1.59872 -0.755442,-3.40155 -1.022248,-5.10922 -0.170316,-2.1496 -0.600417,-4.2763 -0.465316,-6.44092 -0.05783,-1.5144 0.108965,-3.37274 -0.942661,-4.55394 -0.27788,-0.13823 -0.600591,0.0345 -0.751221,0.27785 z"
       id="path9026" /><path
       style="fill:none;fill-opacity:1;stroke:#8c4f26;stroke-width:1.165;stroke-dasharray:none;stroke-opacity:1"
       d="m 95.325421,181.64456 c -0.12862,1.88261 0.29255,3.35645 2.752242,3.63515 5.019617,0.56878 10.054827,1.09671 15.139917,1.01451 4.25035,-0.0687 8.306,0.0753 12.3092,-1.397 1.39358,-0.86742 0.96909,-1.93676 1.09084,-3.3311"
       id="path242-3"
       sodipodi:nodetypes="csscc" /><path
       style="fill:none;stroke:#8c4f26;stroke-width:1.165;stroke-dasharray:none;stroke-opacity:1"
       d="m 97.110832,179.64531 c -3.731467,0.6811 -1.287508,3.26832 1.172184,3.54702 5.019614,0.56878 10.054824,1.09671 15.139914,1.01451 4.25035,-0.0687 8.62329,-0.12825 12.62648,-1.6005 1.39358,-0.86742 -0.41741,-2.28201 -1.5445,-2.53752"
       id="path242"
       sodipodi:nodetypes="csscc" /><path
       style="fill:none;fill-opacity:1;stroke:#8c4f26;stroke-width:1.165;stroke-linecap:round;stroke-linejoin:bevel;stroke-dasharray:none;stroke-opacity:1"
       d="m 96.358033,185.00221 c 0.06402,2.58308 0.837818,5.1225 0.475045,7.72025 -0.05661,2.43462 0.368421,4.84678 0.167321,7.28119 -0.45289,2.45825 1.578058,3.98256 3.814261,4.1925 2.81419,0.34601 5.98336,0.82773 8.87678,0.70641 3.55231,-0.14894 5.89478,-0.13864 8.96684,-0.93206 2.05971,-0.64251 5.1365,-0.48516 6.18462,-2.70355 0.23551,-1.82851 0.57329,-3.68412 0.46067,-5.53643 -0.37567,-1.75092 -0.54986,-3.53818 -0.0993,-5.30142 0.38738,-1.86972 0.76199,-3.7583 0.72479,-5.67355 l 0.14146,-0.30726"
       id="path9024"
       sodipodi:nodetypes="ccccscccccc" /><g
       id="gbreve-2"
       transform="matrix(12.178959,0,0,12.178959,109.06625,179.04712)"
       style="fill:#ffe14a;fill-opacity:1;stroke:#e7c100;stroke-width:0.0812498;stroke-linecap:round;stroke-linejoin:bevel;stroke-dasharray:none;stroke-opacity:1"
       clip-path="url(#clipPath25381)"><path
         id="g-3"
         d="M 0.7071,0.7071 A 1,1 0 1 1 0.866,-0.5 L 1.7321,-1 A 2,2 0 1 0 1.4142,1.4142 L 1.7678,1.7678 V 0.3536 H 0.3536 Z"
         fill="#000000"
         style="fill:#ffe14a;fill-opacity:1;stroke:#e7c100;stroke-width:0.0812498;stroke-linecap:round;stroke-linejoin:bevel;stroke-dasharray:none;stroke-opacity:1" /><path
         id="breve-7"
         d="m 1,0 h 1 a 2,2 0 0 0 -2.5176,-1.9319 l 0.2588,0.966 A 1,1 0 0 1 1,0 Z"
         transform="matrix(-0.39667667,0.30438071,-0.30438071,-0.39667667,0,-3.14159)"
         fill="#000000"
         style="fill:#ffe14a;fill-opacity:1;stroke:#e7c100;stroke-width:0.1625;stroke-linecap:round;stroke-linejoin:bevel;stroke-dasharray:none;stroke-opacity:1" /><circle
         cx="0"
         cy="2.5"
         r="0.3536"
         fill="#000000"
         id="circle10552-5"
         style="fill:#ffe14a;fill-opacity:1;stroke:#e7c100;stroke-width:0.0812498;stroke-linecap:round;stroke-linejoin:bevel;stroke-dasharray:none;stroke-opacity:1" /></g></g></svg>
